<svg width="338" height="42" viewBox="0 0 338 42" fill="none" xmlns="http://www.w3.org/2000/svg">
<path d="M225.545 7.97665H227.424V10.3824H228.987V12.2437H227.424V15.2641C227.424 15.7382 227.811 16.1245 228.373 16.1245C228.847 16.1245 229.163 15.9665 229.163 15.9665V17.7576C229.163 17.7576 228.531 17.9859 227.758 17.9859C226.195 17.9859 225.335 17.1254 225.335 15.3519V12.2437H224V10.3824H224.702C225.177 10.3824 225.563 9.99604 225.563 9.38144V7.97665H225.545Z" fill="#444444"/>
<path d="M233.149 11.313C233.149 11.313 233.939 10.2243 235.344 10.2243C237.065 10.2243 238.329 11.4711 238.329 13.5607V17.9858H236.204V13.789C236.204 12.8583 235.572 12.2437 234.712 12.2437C233.763 12.2437 233.149 12.8583 233.149 14.0348V17.9858H231.024V7.11615H233.149V11.313Z" fill="#444444"/>
<path d="M242.087 14.7197C242.245 15.4923 242.947 16.1947 244.124 16.1947C245.458 16.1947 246.161 15.264 246.161 15.264L247.267 16.6688C247.267 16.6688 246.091 17.9858 243.966 17.9858C241.701 17.9858 239.892 16.1947 239.892 14.0348C239.892 11.8574 241.701 10.0838 243.896 10.0838C246.091 10.0838 247.741 11.7169 247.741 13.8768C247.741 14.4211 247.671 14.7373 247.671 14.7373H242.087V14.7197ZM242.087 13.2622H245.617C245.458 12.4895 244.826 11.8574 243.896 11.8574C242.947 11.8574 242.315 12.472 242.087 13.2622Z" fill="#444444"/>
<path d="M258.312 10.3824L259.805 14.9655L261.298 10.3824H263.493L260.876 17.9858H259.032L257.54 13.6485L256.047 17.9858H254.203L251.587 10.3824H253.782L255.275 14.9655L256.767 10.3824H258.312Z" fill="#444444"/>
<path d="M268.181 17.9858C265.986 17.9858 264.107 16.1245 264.107 14.0348C264.107 11.9452 265.986 10.0838 268.181 10.0838C270.376 10.0838 272.255 11.9452 272.255 14.0348C272.255 16.1245 270.376 17.9858 268.181 17.9858ZM268.181 16.0543C269.2 16.0543 270.06 15.1938 270.06 14.0348C270.06 12.8759 269.2 12.0154 268.181 12.0154C267.163 12.0154 266.302 12.8759 266.302 14.0348C266.302 15.1938 267.163 16.0543 268.181 16.0543Z" fill="#444444"/>
<path d="M278.454 12.3842C278.454 12.3842 278.226 12.3139 277.751 12.3139C276.645 12.3139 275.943 13.0164 275.943 14.3334V17.9858H273.818V10.3824H275.943V11.313C275.943 11.313 276.733 10.3121 278.138 10.3121H278.454V12.3842Z" fill="#444444"/>
<path d="M281.825 16.1245V17.9858H279.701V7.11615H281.825V13.4729L284.565 10.3648H286.988L284.091 13.631L287.146 17.9683H284.793L282.756 15.0182L281.825 16.1245Z" fill="#444444"/>
<path d="M289.271 9.38142C288.568 9.38142 288.094 8.92485 288.094 8.22245C288.094 7.52004 288.568 7.06348 289.271 7.06348C290.061 7.06348 290.518 7.52004 290.518 8.22245C290.518 8.92485 290.044 9.38142 289.271 9.38142ZM290.36 17.9858H288.235V10.3824H290.36V17.9858Z" fill="#444444"/>
<path d="M294.592 11.3131C294.592 11.3131 295.382 10.2243 296.787 10.2243C298.507 10.2243 299.772 11.4711 299.772 13.5607V17.9859H297.647V13.789C297.647 12.8583 297.015 12.2437 296.154 12.2437C295.206 12.2437 294.592 12.8583 294.592 14.0348V17.9859H292.467V10.3824H294.592V11.3131Z" fill="#444444"/>
<path d="M307.059 16.5986C307.059 16.5986 306.269 17.6873 304.776 17.6873C303.055 17.6873 301.335 15.984 301.335 13.8944C301.335 11.8047 303.055 10.1014 304.776 10.1014C306.269 10.1014 307.059 11.1901 307.059 11.1901V10.2594H309.184V17.2483C309.184 19.4258 307.463 21.1291 305.11 21.1291C302.757 21.1291 301.58 19.496 301.58 19.496L302.915 18.2493C302.915 18.2493 303.617 19.2502 305.04 19.2502C306.287 19.2502 307.077 18.4775 307.077 17.2308V16.5986H307.059ZM305.25 15.7381C306.199 15.7381 307.059 14.9304 307.059 13.8768C307.059 12.8232 306.199 12.0154 305.25 12.0154C304.302 12.0154 303.53 12.7881 303.53 13.8768C303.53 14.9655 304.32 15.7381 305.25 15.7381Z" fill="#444444"/>
<path d="M228.829 34.141C228.829 34.141 228.039 35.0716 226.704 35.0716C225.141 35.0716 224.123 34.0707 224.123 32.8942C224.123 31.6475 224.983 30.787 226.388 30.5412L228.812 30.1022C228.812 29.4876 228.337 29.0134 227.477 29.0134C226.3 29.0134 225.756 29.786 225.756 29.786L224.58 28.6271C224.58 28.6271 225.598 27.152 227.635 27.152C229.602 27.152 230.936 28.469 230.936 30.1724V34.896C230.936 34.896 229.286 34.896 228.812 34.896V34.141H228.829ZM228.829 31.665V31.4367L227.108 31.7528C226.564 31.8406 226.248 32.1391 226.248 32.6132C226.248 33.0698 226.564 33.3859 227.266 33.3859C228.197 33.3683 228.829 32.7537 228.829 31.665Z" fill="#444444"/>
<path d="M235.098 28.3988C235.098 28.3988 235.888 27.3101 237.293 27.3101C239.014 27.3101 240.278 28.5569 240.278 30.6465V35.0716H238.153V30.8748C238.153 29.9441 237.521 29.3295 236.661 29.3295C235.713 29.3295 235.098 29.9441 235.098 31.1206V35.0716H232.973V27.4681H235.098V28.3988Z" fill="#444444"/>
<path d="M247.794 28.2408V24.0439H249.919V34.9136H247.794V33.9829C247.794 33.9829 247.004 35.0716 245.511 35.0716C243.544 35.0716 241.824 33.3683 241.824 31.1206C241.824 28.8729 243.544 27.1696 245.511 27.1696C247.021 27.1696 247.794 28.2408 247.794 28.2408ZM247.794 31.1206C247.794 29.8739 246.934 29.031 245.915 29.031C244.897 29.031 244.036 29.8914 244.036 31.1206C244.036 32.3674 244.897 33.2103 245.915 33.2103C246.934 33.2103 247.794 32.3674 247.794 31.1206Z" fill="#444444"/>
<path d="M257.434 35.0717H255.31V24.202H257.434V35.0717Z" fill="#444444"/>
<path d="M261.28 31.8054C261.438 32.5781 262.141 33.2805 263.317 33.2805C264.652 33.2805 265.354 32.3498 265.354 32.3498L266.46 33.7546C266.46 33.7546 265.284 35.0716 263.159 35.0716C260.894 35.0716 259.085 33.2805 259.085 31.1206C259.085 28.9432 260.894 27.1696 263.089 27.1696C265.284 27.1696 266.934 28.8027 266.934 30.9626C266.934 31.507 266.864 31.823 266.864 31.823H261.28V31.8054ZM261.28 30.3304H264.81C264.652 29.5578 264.019 28.9256 263.089 28.9256C262.141 28.9256 261.508 29.5402 261.28 30.3304Z" fill="#444444"/>
<path d="M272.729 34.141C272.729 34.141 271.939 35.0716 270.605 35.0716C269.042 35.0716 268.023 34.0707 268.023 32.8942C268.023 31.6475 268.884 30.787 270.288 30.5412L272.712 30.1022C272.712 29.4876 272.238 29.0134 271.377 29.0134C270.201 29.0134 269.656 29.786 269.656 29.786L268.48 28.6271C268.48 28.6271 269.498 27.152 271.535 27.152C273.502 27.152 274.836 28.469 274.836 30.1724V34.896C274.836 34.896 273.186 34.896 272.712 34.896V34.141H272.729ZM272.729 31.665V31.4367L271.008 31.7528C270.464 31.8406 270.148 32.1391 270.148 32.6132C270.148 33.0698 270.464 33.3859 271.166 33.3859C272.097 33.3683 272.729 32.7537 272.729 31.665Z" fill="#444444"/>
<path d="M281.509 29.47C281.509 29.47 281.281 29.3997 280.807 29.3997C279.701 29.3997 278.998 30.1021 278.998 31.4191V35.0716H276.873V27.4681H278.998V28.3988C278.998 28.3988 279.788 27.3978 281.193 27.3978H281.509V29.47Z" fill="#444444"/>
<path d="M284.793 28.3988C284.793 28.3988 285.583 27.3101 286.988 27.3101C288.709 27.3101 289.973 28.5569 289.973 30.6465V35.0716H287.849V30.8748C287.849 29.9441 287.216 29.3295 286.356 29.3295C285.408 29.3295 284.793 29.9441 284.793 31.1206V35.0716H282.668V27.4681H284.793V28.3988Z" fill="#444444"/>
<path d="M293.099 26.4672C292.397 26.4672 291.922 25.9931 291.922 25.3083C291.922 24.6059 292.397 24.1493 293.099 24.1493C293.889 24.1493 294.346 24.6059 294.346 25.3083C294.363 25.9931 293.889 26.4672 293.099 26.4672ZM294.205 35.0717H292.08V27.4682H294.205V35.0717Z" fill="#444444"/>
<path d="M298.437 28.3988C298.437 28.3988 299.227 27.3101 300.632 27.3101C302.353 27.3101 303.617 28.5569 303.617 30.6465V35.0716H301.493V30.8748C301.493 29.9441 300.86 29.3295 300 29.3295C299.052 29.3295 298.437 29.9441 298.437 31.1206V35.0716H296.312V27.4681H298.437V28.3988Z" fill="#444444"/>
<path d="M310.905 33.8612C310.905 33.8612 310.115 34.9499 308.622 34.9499C306.901 34.9499 305.18 33.2466 305.18 31.157C305.18 29.0673 306.901 27.364 308.622 27.364C310.115 27.364 310.905 28.4527 310.905 28.4527V27.522H313.03V34.5109C313.03 36.6884 311.309 38.3917 308.956 38.3917C306.603 38.3917 305.426 36.7586 305.426 36.7586L306.761 35.5118C306.761 35.5118 307.463 36.5128 308.885 36.5128C310.132 36.5128 310.922 35.7401 310.922 34.4934V33.8612H310.905ZM309.096 33.0008C310.044 33.0008 310.905 32.193 310.905 31.1394C310.905 30.0858 310.044 29.278 309.096 29.278C308.148 29.278 307.375 30.0507 307.375 31.1394C307.375 32.2281 308.148 33.0008 309.096 33.0008Z" fill="#444444"/>
<path d="M321.95 27C324.075 27 325.093 28.5453 325.093 28.5453L323.759 29.8623C323.759 29.8623 323.127 28.8614 321.95 28.8614C320.844 28.8614 319.913 29.7921 319.913 30.951C319.913 32.11 320.861 33.0407 321.95 33.0407C323.127 33.0407 323.829 32.0397 323.829 32.0397L325.076 33.3567C325.076 33.3567 324.057 34.902 321.933 34.902C319.65 34.902 317.771 33.0407 317.771 30.951C317.788 28.8614 319.667 27 321.95 27Z" fill="#444444"/>
<path d="M330.098 34.902C327.903 34.902 326.024 33.0407 326.024 30.951C326.024 28.8614 327.903 27 330.098 27C332.293 27 334.172 28.8614 334.172 30.951C334.172 33.0407 332.293 34.902 330.098 34.902ZM330.098 32.9704C331.117 32.9704 331.977 32.11 331.977 30.951C331.977 29.7921 331.117 28.9316 330.098 28.9316C329.08 28.9316 328.219 29.7921 328.219 30.951C328.219 32.11 329.08 32.9704 330.098 32.9704Z" fill="#444444"/>
<path d="M336.753 32.5841C337.456 32.5841 338 33.1285 338 33.7431C338 34.3577 337.456 34.902 336.753 34.902C336.051 34.902 335.507 34.3577 335.507 33.7431C335.507 33.1285 336.051 32.5841 336.753 32.5841Z" fill="#444444"/>
<g clip-path="url(#clip0)">
<path d="M181.667 20.8491H175.904V4.66195H181.667V0H175.841C174.623 0.00414449 173.455 0.490017 172.594 1.35161C171.732 2.2132 171.246 3.38059 171.242 4.59906V20.9119C171.248 22.1298 171.735 23.296 172.596 24.1571C173.457 25.0183 174.623 25.5048 175.841 25.511H181.667V20.8491Z" fill="#CC0000"/>
<path d="M186.329 4.66195H192.091V20.8491H186.329V25.511H192.146C193.365 25.5069 194.532 25.021 195.394 24.1594C196.255 23.2978 196.741 22.1304 196.745 20.9119V4.59906C196.739 3.38122 196.253 2.21503 195.391 1.35388C194.53 0.49273 193.364 0.00619775 192.146 0L186.329 0V4.66195Z" fill="#CC0000"/>
<path d="M13.2391 34.8192C6.30509 34.8192 1.17144 31.1714 0.322388 25.2987H7.39786C8.34912 27.6572 11.1557 28.4434 13.2233 28.4434C16.0221 28.4434 18.1447 27.5943 18.1447 26.0063C18.1447 24.4182 17.1856 23.8365 12.4293 23.0975C7.57082 22.3899 1.06138 21.0613 1.06138 14.9764C1.06138 10.6918 4.81924 6.24213 12.7045 6.24213C18.9938 6.24213 23.6086 9.63049 24.4969 14.7641H17.2563C16.8318 13.4984 15.2988 12.4921 12.7045 12.4921C9.48119 12.4921 8.15258 13.6556 8.15258 14.6619C8.15258 16.0849 10.1652 16.5645 13.5535 17.0912C20.3302 18.2075 25.1966 19.6855 25.1966 25.6132C25.1966 31.0141 20.2202 34.8192 13.2391 34.8192Z" fill="#CC0000"/>
<path d="M41.4466 34.1352C33.4513 34.9843 29.2218 30.1651 29.2218 22.7044V14.7642H25.9435V8.57704H29.2218V0H36.2107V8.57704H41.4466V14.7642H36.2107V22.7987C36.2107 26.6038 37.956 28.0346 41.4466 27.8223V34.1352Z" fill="#CC0000"/>
<path d="M88.6321 34.772C85.6488 34.7848 82.7801 33.6243 80.6447 31.5409V41.1242H73.5692V6.93395H80.2909V9.78773C81.3721 8.6704 82.6689 7.78422 84.1027 7.18286C85.5364 6.58151 87.0774 6.27752 88.6321 6.2893C95.7784 6.2893 101.604 12.4292 101.604 20.4402C101.604 28.4513 95.7784 34.7327 88.6321 34.7327V34.772ZM87.6337 12.7673C83.7658 12.7673 80.6447 16.2107 80.6447 20.4402C80.6447 24.6698 83.7894 28.2233 87.6337 28.2233C91.478 28.2233 94.6148 24.8899 94.6148 20.4402C94.6148 15.9906 91.4702 12.7673 87.6337 12.7673Z" fill="#CC0000"/>
<path d="M110.865 0H103.876V34.1903H110.865V0Z" fill="#CC0000"/>
<path d="M120.228 23.2862C120.578 24.8302 121.446 26.2079 122.687 27.1905C123.929 28.173 125.469 28.7011 127.052 28.6871C128.209 28.7406 129.359 28.4758 130.377 27.9213C131.394 27.3669 132.24 26.5441 132.822 25.5425H140.259C138.687 31.1006 133.86 34.8506 127.083 34.8506C123.348 34.803 119.783 33.2803 117.166 30.6146C114.549 27.9489 113.092 24.3566 113.113 20.6211C113.113 12.7594 119.403 6.27359 127.083 6.27359C135.126 6.27359 141.792 12.5629 140.786 23.3176L120.228 23.2862ZM133.884 17.5708C133.508 16.0563 132.625 14.716 131.382 13.7722C130.14 12.8284 128.612 12.3379 127.052 12.3821C125.517 12.3863 124.026 12.8972 122.81 13.8354C121.595 14.7735 120.723 16.0866 120.33 17.5708H133.884Z" fill="#CC0000"/>
<path d="M154.945 17.0912C151.557 16.5645 149.544 16.0849 149.544 14.6619C149.544 13.6556 150.865 12.4921 154.096 12.4921C156.69 12.4921 158.223 13.4984 158.648 14.7641H165.896C165 9.63049 160.338 6.24213 154.104 6.24213C146.242 6.24213 142.461 10.6918 142.461 14.9764C142.461 21.0613 148.97 22.3899 153.837 23.1289C158.703 23.8679 159.552 24.5047 159.552 26.0377C159.552 27.5707 157.437 28.4748 154.631 28.4748C152.634 28.4748 149.914 27.6887 148.915 25.511H141.753C142.697 31.2578 147.783 34.8192 154.631 34.8192C161.62 34.8192 166.596 31.0141 166.596 25.6132C166.596 19.6855 161.722 18.2075 154.953 17.0912" fill="#CC0000"/>
<path d="M55.3538 6.3522C58.3378 6.34032 61.2078 7.49734 63.3491 9.57547V6.93396H70.4246V34.1903H63.6636V31.3286C62.5849 32.44 61.2928 33.322 59.8649 33.9218C58.437 34.5216 56.9026 34.8268 55.3538 34.8192C48.2076 34.8192 42.39 28.6871 42.39 20.6682C42.39 12.6494 48.2076 6.3522 55.3538 6.3522ZM56.3601 28.3019C60.2202 28.3019 63.3491 24.8664 63.3491 20.6289C63.3491 16.3915 60.2045 12.8538 56.3601 12.8538C52.5158 12.8538 49.3711 16.1871 49.3711 20.6289C49.3711 25.0708 52.5158 28.3019 56.3601 28.3019Z" fill="#CC0000"/>
<path d="M199.804 2.02829H202.013V2.75156H201.289V4.66194H200.503V2.75156H199.78L199.804 2.02829ZM205.307 2.02829V4.66194H204.52V3.24684L203.797 4.15093L203.153 3.24684V4.66194H202.366V2.02829H203.043L203.829 3.08961L204.615 2.02829H205.307Z" fill="#CC0000"/>
</g>
<defs>
<clipPath id="clip0">
<rect width="205" height="41.1242" fill="white" transform="translate(0.322388)"/>
</clipPath>
</defs>
</svg>
